<?xml version="1.0" encoding="utf-8"?>
<!-- Generator: Adobe Illustrator 19.0.0, SVG Export Plug-In . SVG Version: 6.00 Build 0)  -->
<svg version="1.1" id="Capa_1" xmlns="http://www.w3.org/2000/svg" xmlns:xlink="http://www.w3.org/1999/xlink" x="0px" y="0px"
	 viewBox="-105 197 400 400" style="enable-background:new -105 197 400 400;" xml:space="preserve">
<style type="text/css">
	.st0{fill:#F42121;}
</style>
<g>
	<circle cx="-63.2" cy="449.3" r="38.2"/>
	<g>
		<path d="M164.7,228.5c-0.8,0-1.4,0.8-1.1,1.7c2.4,5.9,11.2,27.6,20.9,59.3l8.6,29.6c0.2,0.6-0.1,1.1-0.6,1.4
			c-4,2.2-21.6,11.8-40.7,20.3l-0.1,0c-1.6,0.5-33.7,9.9-68.6,17.9l-0.1,0c-1.5,0.5-43.6,14.7-21.4,56.8c0,0.1,0.1,0.2,0.1,0.3
			c1.7,1.8,21.7,23,3,23.2c-0.1,0-0.1,0-0.2,0c-1.9-0.3-34.7-4.9-42.7-10c0,0-5.8-2.3-24.8-50.2c0-0.1,0-0.1-0.1-0.2
			c-0.7-1.1-8.7-14-29.9-30.9c-0.1-0.2-0.3-0.2-0.5-0.2c-3.1-0.5-25.9-2,12.6,59.3c0,0.1,0.1,0.2,0.1,0.3c0.5,1.9,6.4,21.4,7.5,24.8
			c0.1,0.3,0,0.7-0.1,0.9c-1.3,2.1-6.4,11.5-7.9,25c0,0.1,0.1-0.1,0,0c-0.3,1.8-0.9,8.3-1.1,9.7c-1.9,17,1.3,33.4,1.6,37.4
			c0,0.1,0,0.1,0,0.2l-4.2,40.9c0,0.3-0.1,0.5-0.3,0.8c-1,1.1-5.6,4-24.4,4.7c-21,0.8-32.3,3.4-34.1,4c-0.2,0-0.4,0.2-0.6,0.3
			c-2.2,2.1-19.8,19.9,7,27.9c0.1,0.1,0.2,0.1,0.4,0c3.2-0.1,46.7-1.5,48.2-1.4c0,0,0,0,0.1,0c1-0.1,22.1-2.2,26-7.1
			c3.8-5.1,25.8-36.7,26.2-40l0,0.4c-0.1,1,1,1.8,1.9,1.1c3-2,8.9-5.2,17.2-5.1c11.6,0.1,49.8-13.1,52.9-14.1c0.1,0,0.3-0.1,0.4-0.1
			c3.3,0,45.3,0.7,42-23c-0.1-0.6-0.7-1.1-1.3-1c-6,0.4-33.8,2.5-10.1,2c26.4-0.5,68.3-23.5,88.4-17c12.8,4.1,17.6,3.9,19.5,3.1
			c0.8-0.3,1.5,0.1,1.8,0.8l31.8,84.6c0,0.2,0.1,0.4,0,0.6c-0.4,2-2.2,12-1.7,17c0.2,1.9,0.1,3.1,0.1,3.8c-0.1,0.8,0.6,1.4,1.4,1.4
			c5.6-0.8,20.2-4.5,16.7-21.9c0-0.1,0-0.1,0-0.2L182.9,249.1l-2.4-7.6c0-0.1,0-0.2-0.1-0.3C180.2,239.7,179.6,228.2,164.7,228.5z
			 M225.7,439.7L225.7,439.7c0.9,2.3,3,2.5-4.6,1.7c-7.2-0.8-64.3,2.3-69.1,2.6c-0.2,0-0.4,0.1-0.6,0.2c-9.2,6-12.7,5.2-13.8,4.4
			c-0.3-0.2-0.5-0.6-0.5-1.1c0.9-7.3-14.8-42.1-16.1-44.9c0-0.1-0.1-0.3-0.3-0.4c-13.7-13.7,4.2-8.6,6.3-8c0.1,0.1,0.3,0,0.4,0
			c23.1-1.6,67.8-22.5,75.9-26.3c0.7-0.3,1.5,0,1.6,0.7L225.7,439.7z"/>
		<path d="M265.2,590.3L265.2,590.3L265.2,590.3z"/>
	</g>
</g>
<path class="st0" d="M-31.3,494.7c-1,7.2-9.6-4.3-8.6-1.5c1.6,4.2-2,14.8-5.8,17.2c-3.4,2.1-15.8-2-15.7-2.8s-1.9-7.3-2.2-9.8
	c-0.3-3.1,0.6-10.1-1.3-12.6c-2.3-3-11.6-4.5-15-2.8c-4.1,2-7.1,14-11.7,14c-3.2,0-8.5-9.8-8.5-9.8s-4.4-6.2-4.8-8.7
	c-0.6-3.4,2.2-13.8,2.2-13.8s3.2-8.8,3.2-9.5s16.8-6.4,20.8-3c4,3.3,1.4,19,4.1,20.2c1.2,0.5,9.1-7.1,15.3-6.9
	c2,0.1,5.1,5.2,7.2,5.2c6.3-0.1,9,1,12.4-0.3c5.2-2,7.1-10.5,8.6-10.5c1.5,0,6.3-2.8,9,2c4.4,7.9,4.6,29.2,4.6,29.2
	s-9.7,15.6-9.8,11"/>
</svg>
