<?xml version="1.0" encoding="utf-8"?>
<!-- Generator: Adobe Illustrator 22.0.0, SVG Export Plug-In . SVG Version: 6.00 Build 0)  -->
<svg version="1.1" id="Capa_1" xmlns="http://www.w3.org/2000/svg" xmlns:xlink="http://www.w3.org/1999/xlink" x="0px" y="0px"
	 viewBox="0 0 400 400" style="enable-background:new 0 0 400 400;" xml:space="preserve">
<circle cx="211.9" cy="55.2" r="35"/>
<path d="M369,376c-5.8,1.9-7,7-28,7h-66c0,0-1-9-3.3-22.1l-6.1-74.5c0,0-3.2-20.2-15.3-24.2l-55.7-29.6c0,0-7.3,0.5-3.7-7.2l16.6-36
	c0,0,0.8-3.5,3.8-1.4c0,0,4.3,17.6,20.8,19l71.1-3.8c0,0,27.2-10,3-35.2l-60.6,3.2c0,0-2.8,1-6.5-6.1c0,0-8.9-12.7-10.2-13.3
	c-1.3-0.6,3.1-11.8,0.3-19.3c-2.8-7.5-16.9-34.3-53-26.8l-66.3,5.2c0,0-13.2,1.7-17,11.6l-27.9,68.9c0,0,6.7,32.7,32.7,13.5
	l24.5-56.4l25.2-3.9c0,0,2.2,0.2,1,2.8l-34.7,73.5c0,0-7.2,12.2,6.9,27.3l29.4,30.7c0,0,4.9,4.6,0.9,8.2L77,368c0,0-6,9-18,12
	c-9.8,2.4-27.1-6.1-47-19c-3.8-2.4-8.9,4.8-1.2,15.7c0.7,1,2.2,2.4,3.1,3.2c3,2.5,12,13.2,44.5,18l283.9,1.9c0,0,16.7,1.2,28.7-14.8
	C373,382.4,375,374,369,376z M222.5,305.4l5.7,61.8c0,0,2.8,16.3-1.3,16.7H124c0,0,10-11,14.7-16.8l66.9-75.8c0,0,2.5-2,4.1-0.4
	l10,7C219.8,297.9,221.7,300.4,222.5,305.4z"/>
<g>
	<g>
		<path d="M13.2,363.1C13.2,363.1,13.2,363.1,13.2,363.1C13.2,363.1,13.2,363.1,13.2,363.1z"/>
	</g>
</g>
</svg>
