<?xml version="1.0" encoding="utf-8"?>
<!-- Generator: Adobe Illustrator 19.0.0, SVG Export Plug-In . SVG Version: 6.00 Build 0)  -->
<svg version="1.1" id="Capa_1" xmlns="http://www.w3.org/2000/svg" xmlns:xlink="http://www.w3.org/1999/xlink" x="0px" y="0px"
	 viewBox="-105 207 400 379" style="enable-background:new -105 207 400 379;" xml:space="preserve">
<style type="text/css">
	.st0{fill:none;}
	.st1{fill:#FFFFFF;}
</style>
<g>
	<path class="st0" d="M126.8,485l-10-7c-1.6-1.6-4.1,0.4-4.1,0.4l-67,75.8c-0.9,3.5,2.3,3.4,2.3,3.4l82.9-0.6
		c4.1-0.5,4.3-2.7,4.3-2.7l-5.7-61.8C128.7,487.4,126.7,485,126.8,485z"/>
	<circle cx="119" cy="242.2" r="35"/>
	<path d="M83.6,292.9c-0.1-0.1-0.2-0.2-0.3-0.2l-3.5,5.4l3.5-5.4c0,0,0,0,0,0l-23.4,35.1l34,2.7L83.6,292.9z"/>
	<path d="M79.9,292.7l-25.2-3.9l-24.5-56.4C4.2,213.3-2.5,246-2.5,246l28,68.9c3.8,9.9,17,11.6,17,11.6l17.3,1.4l23.4-35.1
		C82.2,292.3,79.9,292.7,79.9,292.7z"/>
	<path d="M135.9,338.8c0.6-1.3,3.1-11.8,0.4-19.3c-2.8-7.5-16.9-34.3-53-26.9l-0.1,0.1c0.1,0.1,0.3,0.1,0.3,0.2l10.3,37.6l-34-2.7
		l-4.4,6.6l-34.8,73.5c0,0-7.2,12.2,6.8,27.3l29.4,30.7c0,0,4.9,4.6,0.9,8.2L-17,554.8c0,0-19,9.1-53.3-26.2c0,0-31-8.9-19.6,22.1
		c0,0,18,28.6,55.1,34.1l263.9,2.1c0,0,63.6-9.5,67.7-50.5c0.1,0-5.8-27.7-35.1,5.5c0,0-18.2,14.2-39.1,15.4h-40.5
		c0,0-3.2,0.1-3.5-9.4l-6.1-74.5c0,0-3.1-20.2-15.3-24.2l-55.6-29.6c0,0-7.3,0.5-3.7-7.2l16.6-35.9 M130.9,557L48,557.6
		c0,0-3.2,0.1-2.3-3.4l67-75.8c0,0,2.5-2,4.1-0.4l10,7c-0.1,0,1.9,2.4,2.7,7.5l5.7,61.8C135.2,554.3,135,556.5,130.9,557z"/>
	<polygon points="83.3,292.6 83.2,292.7 83.2,292.7 	"/>
</g>
<path d="M138.9,333.1"/>
<path d="M152.3,359.7l63.9-31.4c0,0,21.1-19.9-11-33.6l-54.5,26.6c0,0-2.2,2-8.4-3.1c0,0-11.3-7-14.1-8.1l-1.7,41.1
	C129.3,354.5,139,364.1,152.3,359.7z"/>
<path class="st1" d="M98.7,250.5c-0.2-0.4,42.3,0,42.3,0S120,288.8,98.7,250.5z"/>
<path class="st1" d="M99.2,237.8c0,0,7.5-9.7,7.5-9.2s6.3,9.2,6.3,9.2h-3.2l-3.2-5.5l-4.5,5.5H99.2z"/>
<path class="st1" d="M127.2,237.3c0,0,7.5-9.7,7.5-9.2s6.3,9.2,6.3,9.2h-3.2l-3.2-5.5l-4.5,5.5H127.2z"/>
</svg>
