<?xml version="1.0" encoding="utf-8"?>
<!-- Generator: Adobe Illustrator 22.0.0, SVG Export Plug-In . SVG Version: 6.00 Build 0)  -->
<svg version="1.1" id="Capa_1" xmlns="http://www.w3.org/2000/svg" xmlns:xlink="http://www.w3.org/1999/xlink" x="0px" y="0px"
	 viewBox="0 0 400 400" style="enable-background:new 0 0 400 400;" xml:space="preserve">
<g>
	<circle cx="208" cy="63.5" r="38.2"/>
	<g>
		<path d="M386.8,325.6c0.1-0.8-0.6-1.5-1.5-1.4c-6.2,1.4-29.1,6.3-62,10.5l-30.6,3.4c-0.6,0.1-1.1-0.3-1.3-0.8
			c-1.5-4.3-7.9-23.3-13.1-43.6c0,0,0-0.1,0-0.1c-0.2-1.7-4-34.9-6-70.7c0,0,0-0.1,0-0.1c-0.2-1.6-7.1-45.5-52.3-30.8
			c-0.1,0-0.2,0.1-0.3,0.1c-2.1,1.4-26.4,17.5-23.4-1c0-0.1,0-0.1,0-0.2c0.6-1.8,10.7-33.4,17.1-40.4c0,0,3.2-5.3,53.7-15.9
			c0.1,0,0.1,0,0.2-0.1c1.2-0.5,15.3-6.2,35.5-24.2c0.2-0.1,0.3-0.3,0.3-0.5c1-3,6.4-25.2-60.6,2.3c-0.1,0-0.2,0.1-0.3,0.1
			c-2,0.2-22.2,2.7-25.7,3.2c-0.3,0-0.7-0.1-0.9-0.3c-1.9-1.6-10.2-8.3-23.3-12c-0.1,0,0.1,0.1,0,0c-1.7-0.6-8-2.3-9.4-2.7
			c-16.4-4.8-33.1-4.4-37.1-4.8c-0.1,0-0.1,0-0.2,0L106,84.5c-0.3-0.1-0.5-0.2-0.7-0.4c-0.9-1.2-3-6.2-0.5-24.8
			c2.8-20.8,2.1-32.4,1.9-34.3c0-0.2-0.1-0.4-0.2-0.6c-1.7-2.5-16.2-22.9-28.7,2.1c-0.1,0.1-0.1,0.2-0.1,0.4
			c-0.5,3.2-6.5,46.3-6.8,47.7c0,0,0,0,0,0.1c-0.1,1-1.6,22.2,2.6,26.8c4.4,4.6,31.8,31.7,35,32.6l-0.4-0.1c-1-0.3-1.9,0.7-1.4,1.7
			c1.5,3.3,3.6,9.7,2.1,17.8c-2.1,11.4,4.4,51.3,4.9,54.5c0,0.1,0,0.3,0,0.4c-0.6,3.2-8.4,44.5,15.5,45.3c0.6,0,1.2-0.5,1.2-1.1
			c0.6-6,3.3-33.7-0.3-10.3c-4,26.1,11.5,71.3,1.7,90c-6.2,11.9-6.8,16.7-6.4,18.7c0.2,0.8-0.4,1.5-1.1,1.6l-88.8,16.9
			c-0.2,0-0.4,0-0.6-0.1c-1.9-0.7-11.5-4.2-16.5-4.6c-1.9-0.1-3.1-0.4-3.8-0.6c-0.8-0.2-1.5,0.3-1.6,1.1c-0.2,5.6,1,20.7,18.7,20.2
			c0.1,0,0.1,0,0.2,0l331.5-45.5l7.9-1.1c0.1,0,0.2,0,0.3,0C373.1,339,384.6,340.3,386.8,325.6z M168.3,349.8c0,0-0.1,0-0.1,0
			c-2.3,0.5-2.9,2.5-0.8-4.8c2-7,8.7-63.7,9.2-68.5c0-0.2,0-0.4-0.1-0.6c-4.3-10.1-3-13.4-2-14.4c0.3-0.3,0.7-0.4,1.2-0.3
			c7,2.1,44-7.4,47-8.2c0.1,0,0.3-0.1,0.4-0.2c15.8-11.2,7.8,5.6,6.8,7.6c-0.1,0.1-0.1,0.3-0.1,0.4c-2.3,23,10.6,70.6,13,79.3
			c0.2,0.7-0.3,1.5-1,1.5L168.3,349.8z"/>
		<path d="M13.2,363.1C13.2,363.1,13.2,363.1,13.2,363.1C13.2,363.1,13.2,363.1,13.2,363.1z"/>
	</g>
</g>
</svg>
