<?xml version="1.0" encoding="utf-8"?>
<!-- Generator: Adobe Illustrator 22.0.0, SVG Export Plug-In . SVG Version: 6.00 Build 0)  -->
<svg version="1.1" id="Capa_1" xmlns="http://www.w3.org/2000/svg" xmlns:xlink="http://www.w3.org/1999/xlink" x="0px" y="0px"
	 viewBox="0 0 400 400" style="enable-background:new 0 0 400 400;" xml:space="preserve">
<style type="text/css">
	.st0{fill:#C6C7C6;}
	.st1{fill:#0D0605;}
	.st2{fill:#FFFF00;}
	.st3{fill:#FF0000;}
</style>
<polygon class="st0" points="148.3,53.4 224.3,53.4 224.3,160.4 234,160.4 234.5,185.4 238.5,185.4 243.1,215.4 243.8,248.9 
	238.5,250.9 232.9,264.6 229.5,278.4 224.3,287.9 210,297.4 202.5,307.4 192.5,311.9 155,311.9 152.5,307.4 144,297.4 137.5,292.6 
	131,287.9 126.5,283.4 124,278.4 119.8,270.9 114.8,250.9 110.1,237.9 110.1,189.4 114.8,185.4 119.4,174.9 119.4,160.4 124,155.4 
	129,150.6 134.8,145.9 139.4,141.3 148.3,136.6 "/>
<rect x="58.5" y="13.9" class="st1" width="9" height="28"/>
<rect x="63" y="32.9" class="st1" width="42.5" height="9"/>
<rect x="105.5" y="23.4" class="st1" width="18.5" height="9.5"/>
<rect x="78.5" y="23.4" class="st1" width="8" height="30"/>
<rect x="86.5" y="13.9" class="st1" width="9.5" height="9.5"/>
<rect x="67.5" y="37.4" class="st1" width="11" height="25.5"/>
<rect x="58.5" y="60.9" class="st1" width="30.5" height="10.5"/>
<rect x="78.5" y="66.1" class="st1" width="8" height="14.8"/>
<rect x="86.5" y="80.9" class="st1" width="9.5" height="17.5"/>
<rect x="96" y="99.4" class="st1" width="9.5" height="9.5"/>
<rect x="105.5" y="108.9" class="st1" width="9.3" height="18.5"/>
<rect x="114.8" y="127.4" class="st1" width="9.3" height="18.5"/>
<rect x="114.8" y="155.4" class="st1" width="9.3" height="30"/>
<rect x="105.5" y="185.4" class="st1" width="9.3" height="65.5"/>
<rect x="114.8" y="250.9" class="st1" width="9.3" height="27.5"/>
<rect x="124" y="278.4" class="st1" width="10" height="38"/>
<rect x="114.8" y="316.4" class="st1" width="9.3" height="76"/>
<rect x="105.5" y="354.4" class="st1" width="28.5" height="8.5"/>
<rect x="134" y="362.9" class="st1" width="10" height="10.5"/>
<rect x="86.5" y="373.4" class="st1" width="9.5" height="19"/>
<rect x="96" y="362.9" class="st1" width="9.5" height="20"/>
<rect x="105.5" y="362.9" class="st1" width="9.3" height="10.5"/>
<rect x="124" y="145.9" class="st1" width="10" height="9.5"/>
<rect x="134.8" y="136.6" class="st1" width="9.3" height="9.3"/>
<rect x="148.3" y="155.4" class="st1" width="25.8" height="10"/>
<rect x="200" y="155.4" class="st1" width="38.5" height="10"/>
<rect x="161.1" y="165.4" class="st1" width="48.9" height="9.5"/>
<rect x="229.5" y="160.4" class="st1" width="9" height="25"/>
<rect x="238.5" y="185.4" class="st1" width="9.5" height="65.5"/>
<rect x="229.5" y="250.9" class="st1" width="9" height="27.5"/>
<rect x="219" y="278.4" class="st1" width="10.5" height="19"/>
<rect x="210" y="287.9" class="st1" width="9" height="9.5"/>
<rect x="148.3" y="113.5" class="st2" width="79" height="23.1"/>
<rect x="200" y="297.4" class="st1" width="10" height="10"/>
<rect x="152.5" y="307.4" class="st1" width="50" height="9"/>
<rect x="144" y="41.9" class="st1" width="8.5" height="123.5"/>
<rect x="144" y="297.4" class="st1" width="8.5" height="10"/>
<rect x="131" y="287.9" class="st1" width="13" height="9.5"/>
<rect x="219" y="41.9" class="st1" width="10.5" height="123.5"/>
<rect x="229.5" y="297.4" class="st1" width="10" height="10"/>
<rect x="239.5" y="307.4" class="st1" width="8.5" height="51.3"/>
<rect x="229.5" y="354.4" class="st1" width="45.5" height="8.5"/>
<rect x="219" y="362.9" class="st1" width="19.5" height="10.5"/>
<rect x="248" y="362.9" class="st1" width="9.5" height="29.5"/>
<rect x="275" y="362.9" class="st1" width="10.5" height="10.5"/>
<rect x="227.3" y="136.6" class="st1" width="11.3" height="11.3"/>
<rect x="238.5" y="127.4" class="st1" width="9.3" height="9.3"/>
<rect x="247.8" y="118.1" class="st1" width="18.8" height="9.3"/>
<rect x="266.5" y="108.9" class="st1" width="19" height="9.3"/>
<rect x="285.5" y="98.4" class="st1" width="21.5" height="10.5"/>
<rect x="304" y="89.6" class="st1" width="57.5" height="9.8"/>
<rect x="343.3" y="108.9" class="st1" width="9.3" height="9.3"/>
<rect x="332.8" y="96.9" class="st1" width="8.3" height="12"/>
<rect x="324" y="80.9" class="st1" width="8.8" height="8.8"/>
<rect x="332.8" y="71.4" class="st1" width="8.3" height="8.3"/>
<rect x="341" y="53.4" class="st1" width="11.5" height="18"/>
<rect x="314" y="62.4" class="st1" width="10" height="18.5"/>
<rect x="148.3" y="108.9" class="st1" width="70.8" height="9.3"/>
<rect x="148.3" y="128.3" class="st1" width="22.8" height="8.3"/>
<rect x="200" y="128.8" class="st1" width="24.3" height="7.8"/>
<rect x="200" y="113.5" class="st1" width="8.6" height="15.9"/>
<rect x="181.9" y="113.5" class="st1" width="7.3" height="32.4"/>
<rect x="161.1" y="136.6" class="st1" width="48.9" height="9.3"/>
<rect x="162.3" y="115.9" class="st1" width="8.8" height="20.8"/>
<rect x="162.3" y="41.9" class="st1" width="47.7" height="11.5"/>
<rect x="162.3" y="71.4" class="st1" width="19.6" height="9.5"/>
<rect x="162.3" y="62.4" class="st1" width="9.8" height="9.8"/>
<rect x="150" y="51.9" class="st1" width="12.3" height="19.5"/>
<rect x="210" y="52.9" class="st1" width="13.5" height="18.5"/>
<rect x="200.7" y="61.6" class="st1" width="10.2" height="19.3"/>
<rect x="191" y="71.4" class="st1" width="11.2" height="9.5"/>
<rect x="172.2" y="89.6" class="st3" width="9.8" height="9.8"/>
<rect x="190.6" y="89.6" class="st3" width="9.8" height="9.8"/>
</svg>
